0
SECTION
2
HEADER
9
$INSUNITS
70
4
9
$ACADVER
1
AC1014
9
$HANDSEED
5
FFFF
0
ENDSEC
0
SECTION
2
TABLES
0
TABLE
2
VPORT
5
8
100
AcDbSymbolTable
0
ENDTAB
0
TABLE
2
LTYPE
5
5
100
AcDbSymbolTable
0
LTYPE
5
14
100
AcDbSymbolTableRecord
100
AcDbLinetypeTableRecord
2
BYBLOCK
70
0
0
LTYPE
5
15
100
AcDbSymbolTableRecord
100
AcDbLinetypeTableRecord
2
BYLAYER
70
0
0
ENDTAB
0
TABLE
2
LAYER
5
2
100
AcDbSymbolTable
70
2
0
LAYER
5
50
100
AcDbSymbolTableRecord
100
AcDbLayerTableRecord
2
0
70
0
6
CONTINUOUS
0
ENDTAB
0
TABLE
2
STYLE
5
3
100
AcDbSymbolTable
70
1
0
STYLE
5
11
100
AcDbSymbolTableRecord
100
AcDbTextStyleTableRecord
2
STANDARD
70
0
0
ENDTAB
0
TABLE
2
VIEW
5
6
100
AcDbSymbolTable
70
0
0
ENDTAB
0
TABLE
2
UCS
5
7
100
AcDbSymbolTable
70
0
0
ENDTAB
0
TABLE
2
APPID
5
9
100
AcDbSymbolTable
70
2
0
APPID
5
12
100
AcDbSymbolTableRecord
100
AcDbRegAppTableRecord
2
ACAD
70
0
0
ENDTAB
0
TABLE
2
DIMSTYLE
5
A
100
AcDbSymbolTable
70
1
0
ENDTAB
0
TABLE
2
BLOCK_RECORD
5
1
100
AcDbSymbolTable
70
1
0
BLOCK_RECORD
5
1F
100
AcDbSymbolTableRecord
100
AcDbBlockTableRecord
2
*MODEL_SPACE
0
BLOCK_RECORD
5
1B
100
AcDbSymbolTableRecord
100
AcDbBlockTableRecord
2
*PAPER_SPACE
0
ENDTAB
0
ENDSEC
0
SECTION
2
BLOCKS
0
BLOCK
5
20
100
AcDbEntity
100
AcDbBlockBegin
2
*MODEL_SPACE
0
ENDBLK
5
21
100
AcDbEntity
100
AcDbBlockEnd
0
BLOCK
5
1C
100
AcDbEntity
100
AcDbBlockBegin
2
*PAPER_SPACE
0
ENDBLK
5
1D
100
AcDbEntity
100
AcDbBlockEnd
0
ENDSEC
0
SECTION
2
ENTITIES
0
LWPOLYLINE
5
100
100
AcDbEntity
8
0
100
AcDbPolyline
90
8
70
1
43
0.0
10
87.962500000000006
20
-72.925000000000054
42
-0.4142135623730846
10
87.212500000000006
20
-73.675000000000054
10
74.712500000000006
20
-73.674999999999983
42
-0.41421356237309503
10
73.962500000000006
20
-72.925000000000054
10
73.962500000000006
20
-60.424999999999983
42
-0.41421356237308116
10
74.712500000000006
20
-59.674999999999983
10
87.212500000000006
20
-59.674999999999983
42
-0.4142135623730846
10
87.962500000000006
20
-60.424999999999983
0
LWPOLYLINE
5
101
100
AcDbEntity
8
0
100
AcDbPolyline
90
8
70
1
43
0.0
10
96.737499999999997
20
-92.724999999999966
42
0.41421356237310897
10
97.487500000000011
20
-91.974999999999966
10
97.487500000000011
20
-79.475000000000023
42
0.41421356237311585
10
96.737499999999997
20
-78.725000000000037
10
84.237499999999983
20
-78.724999999999994
42
0.41421356237308815
10
83.487499999999983
20
-79.475000000000023
10
83.487500000000026
20
-91.974999999999966
42
0.41421356237308116
10
84.237499999999983
20
-92.724999999999952
0
LWPOLYLINE
5
102
100
AcDbEntity
8
0
100
AcDbPolyline
90
8
70
1
43
0.0
10
116.82500000000005
20
-22.324999999999967
42
-0.41421356237307255
10
117.575
20
-21.57499999999996
10
130.07499999999999
20
-21.575000000000056
42
-0.41421356237309159
10
130.82499999999999
20
-22.324999999999967
10
130.82499999999999
20
-34.825000000000031
42
-0.41421356237310542
10
130.07499999999999
20
-35.575000000000038
10
117.575
20
-35.575000000000045
42
-0.41421356237311757
10
116.82500000000005
20
-34.825000000000031
0
LWPOLYLINE
5
103
100
AcDbEntity
8
0
100
AcDbPolyline
90
8
70
1
43
0.0
10
98.525000000000006
20
-35.575000000000038
42
-0.41421356237309331
10
97.775000000000034
20
-34.825000000000031
10
97.775000000000034
20
-22.324999999999967
42
-0.41421356237309331
10
98.525000000000006
20
-21.57499999999996
10
111.02500000000001
20
-21.575000000000056
42
-0.41421356237310197
10
111.77500000000002
20
-22.324999999999967
10
111.77500000000002
20
-34.825000000000031
42
-0.41421356237311757
10
111.02500000000001
20
-35.575000000000038
0
LWPOLYLINE
5
104
100
AcDbEntity
8
0
100
AcDbPolyline
90
8
70
1
43
0.0
10
60.425000000000004
20
-35.575000000000038
42
-0.41421356237310542
10
59.675000000000011
20
-34.825000000000031
10
59.675000000000004
20
-22.324999999999967
42
-0.41421356237307944
10
60.425000000000004
20
-21.574999999999953
10
72.925000000000054
20
-21.574999999999953
42
-0.41421356237308637
10
73.675000000000054
20
-22.324999999999967
10
73.674999999999983
20
-34.825000000000031
42
-0.41421356237309681
10
72.925000000000026
20
-35.575000000000038
0
LWPOLYLINE
5
105
100
AcDbEntity
8
0
100
AcDbPolyline
90
8
70
1
43
0.0
10
69.200000000000003
20
-53.874999999999964
10
69.200000000000003
20
-41.374999999999964
42
-0.41421356237310542
10
69.950000000000017
20
-40.624999999999964
10
82.450000000000031
20
-40.624999999999964
42
-0.41421356237310542
10
83.200000000000003
20
-41.374999999999964
10
83.200000000000003
20
-53.874999999999964
42
-0.41421356237309503
10
82.450000000000031
20
-54.624999999999979
10
69.950000000000017
20
-54.624999999999979
42
-0.41421356237309503
0
LWPOLYLINE
5
106
100
AcDbEntity
8
0
100
AcDbPolyline
90
8
70
1
43
0.0
10
136.625
20
-35.575000000000045
42
-0.41421356237310025
10
135.87500000000006
20
-34.825000000000031
10
135.875
20
-22.324999999999967
42
-0.41421356237309681
10
136.625
20
-21.574999999999953
10
149.125
20
-21.575000000000056
42
-0.41421356237309159
10
149.875
20
-22.324999999999967
10
149.875
20
-34.825000000000031
42
-0.41421356237309853
10
149.12500000000003
20
-35.575000000000053
0
LWPOLYLINE
5
107
100
AcDbEntity
8
0
100
AcDbPolyline
90
8
70
1
43
0.0
10
244.375
20
-21.575000000000053
42
-0.41421356237307944
10
245.12500000000003
20
-22.324999999999967
10
245.12500000000003
20
-34.825000000000031
42
-0.41421356237303608
10
244.375
20
-35.575000000000038
10
231.875
20
-35.57500000000006
42
-0.41421356237307944
10
231.125
20
-34.825000000000031
10
231.12500000000011
20
-22.324999999999967
42
-0.41421356237309331
10
231.875
20
-21.574999999999946
0
LWPOLYLINE
5
108
100
AcDbEntity
8
0
100
AcDbPolyline
90
8
70
1
43
0.0
10
174.72499999999999
20
-35.575000000000038
42
-0.41421356237311757
10
173.97500000000005
20
-34.825000000000031
10
173.97500000000008
20
-22.324999999999967
42
-0.41421356237309503
10
174.72499999999999
20
-21.574999999999974
10
187.22499999999999
20
-21.575000000000077
42
-0.41421356237307422
10
187.97500000000002
20
-22.324999999999967
10
187.97499999999999
20
-34.825000000000031
42
-0.41421356237307771
10
187.22499999999999
20
-35.575000000000053
0
LWPOLYLINE
5
109
100
AcDbEntity
8
0
100
AcDbPolyline
90
8
70
1
43
0.0
10
79.47499999999998
20
-21.574999999999953
10
91.974999999999994
20
-21.575000000000056
42
-0.41421356237306733
10
92.724999999999966
20
-22.324999999999967
10
92.725000000000023
20
-34.825000000000031
42
-0.41421356237312801
10
91.974999999999994
20
-35.575000000000038
10
79.47499999999998
20
-35.575000000000045
42
-0.41421356237308815
10
78.724999999999994
20
-34.825000000000031
10
78.724999999999994
20
-22.324999999999967
42
-0.41421356237310025
0
LWPOLYLINE
5
110
100
AcDbEntity
8
0
100
AcDbPolyline
90
8
70
1
43
0.0
10
168.17500000000001
20
-35.575000000000038
10
155.67500000000001
20
-35.575000000000045
42
-0.41421356237310025
10
154.92500000000007
20
-34.825000000000031
10
154.92500000000001
20
-22.324999999999967
42
-0.41421356237309681
10
155.67500000000001
20
-21.574999999999953
10
168.17500000000001
20
-21.575000000000038
42
-0.41421356237312978
10
168.92500000000001
20
-22.324999999999967
10
168.92500000000001
20
-34.825000000000031
42
-0.41421356237309853
0
LWPOLYLINE
5
111
100
AcDbEntity
8
0
100
AcDbPolyline
90
8
70
1
43
0.0
10
68.912500000000009
20
-72.925000000000054
10
68.912500000000009
20
-60.424999999999983
42
0.41421356237307078
10
68.162499999999994
20
-59.674999999999983
10
55.662500000000001
20
-59.674999999999983
42
0.41421356237309159
10
54.912500000000009
20
-60.424999999999983
10
54.912500000000009
20
-72.925000000000054
42
0.41421356237307771
10
55.662500000000001
20
-73.675000000000054
10
68.162499999999994
20
-73.675000000000054
42
0.41421356237309159
0
LWPOLYLINE
5
112
100
AcDbEntity
8
0
100
AcDbPolyline
90
8
70
1
43
0.0
10
49.112499999999997
20
-59.674999999999983
10
36.612499999999997
20
-59.674999999999983
42
0.41421356237309503
10
35.862499999999997
20
-60.424999999999983
10
35.862499999999997
20
-72.925000000000054
42
0.41421356237309503
10
36.612499999999997
20
-73.675000000000054
10
49.112499999999997
20
-73.675000000000054
42
0.41421356237309853
10
49.862500000000011
20
-72.925000000000054
10
49.86249999999999
20
-60.424999999999983
42
0.41421356237311935
0
LWPOLYLINE
5
113
100
AcDbEntity
8
0
100
AcDbPolyline
90
8
70
1
43
0.0
10
15.775000000000006
20
-2.5249999999999901
42
-0.41421356237309026
10
16.524999999999999
20
-3.2749999999999879
10
16.524999999999995
20
-15.775000000000027
42
-0.41421356237309936
10
15.775000000000006
20
-16.52500000000002
10
3.275000000000019
20
-16.524999999999945
42
-0.41421356237309204
10
2.5250000000000199
20
-15.774999999999952
10
2.5249999999999999
20
-3.2749999999999901
42
-0.41421356237309437
10
3.2750000000000101
20
-2.5249999999999906
0
ARC
5
114
100
AcDbEntity
8
0
100
AcDbCircle
10
8.0374999999999908
20
-111.02500000000049
30
3.6082248300317603e-15
40
0.74999999999997513
210
0
220
0
230
1
100
AcDbArc
50
180
51
270.00000000000148
0
LWPOLYLINE
5
115
100
AcDbEntity
8
0
100
AcDbPolyline
90
8
70
1
43
0.0
10
289.02499999999998
20
-21.575000000000038
10
301.52499999999998
20
-21.57500000000001
42
-0.41421356237308637
10
302.27499999999998
20
-22.324999999999999
10
302.27499999999998
20
-34.825000000000031
42
-0.41421356237303092
10
301.52499999999998
20
-35.575000000000003
10
289.02499999999998
20
-35.574999999999903
42
-0.41421356237307078
10
288.27499999999998
20
-34.825000000000031
10
288.27499999999998
20
-22.324999999999967
42
-0.41421356237306212
0
LWPOLYLINE
5
116
100
AcDbEntity
8
0
100
AcDbPolyline
90
8
70
1
43
0.0
10
227.11250000000007
20
-16.52499999999992
42
-0.41421356237314361
10
226.36250000000007
20
-15.775000000000027
10
226.36250000000004
20
-3.2750000000000279
42
-0.41421356237311369
10
227.11250000000007
20
-2.5250000000000226
10
239.61250000000007
20
-2.5249999999999817
42
-0.41421356237311585
10
240.36250000000001
20
-3.2749999999999879
10
240.36250000000001
20
-15.775000000000027
42
-0.41421356237302048
10
239.61250000000007
20
-16.525000000000006
0
ARC
5
117
100
AcDbEntity
8
0
100
AcDbCircle
10
20.537500000000005
20
-111.0250000000002
30
-5.1902926401226081e-14
40
0.74999999999999289
210
0
220
0
230
1
100
AcDbArc
50
-90
51
0
0
LWPOLYLINE
5
118
100
AcDbEntity
8
0
100
AcDbPolyline
90
8
70
1
43
0.0
10
289.02499999999998
20
-78.724999999999966
10
301.52499999999998
20
-78.725000000000023
42
-0.41421356237312978
10
302.27500000000009
20
-79.47499999999998
10
302.27499999999998
20
-91.224999999999966
10
302.27500086482269
20
-92.725000000000023
10
289.02499999999998
20
-92.724999999999966
42
-0.41421356237306733
10
288.27499999999998
20
-91.974999999999966
10
288.27499999999998
20
-79.47499999999998
42
-0.41421356237307078
0
LWPOLYLINE
5
119
100
AcDbEntity
8
0
100
AcDbPolyline
90
8
70
1
43
0.0
10
103.28749999999999
20
-78.724999999999994
42
0.41421356237307771
10
102.53749999999998
20
-79.475000000000023
10
102.53750000000004
20
-91.974999999999966
42
0.41421356237310197
10
103.28749999999999
20
-92.724999999999966
10
115.78749999999999
20
-92.724999999999966
42
0.41421356237306733
10
116.53750000000001
20
-91.974999999999966
10
116.53750000000001
20
-79.475000000000023
42
0.41421356237309159
10
115.78749999999999
20
-78.725000000000023
0
LWPOLYLINE
5
120
100
AcDbEntity
8
0
100
AcDbPolyline
90
8
70
1
43
0.0
10
246.16250000000002
20
-2.5249999999999901
10
258.66250000000002
20
-2.5249999999999599
42
-0.41421356237307794
10
259.41250000000014
20
-3.2750000000000279
10
259.41250000000002
20
-15.775000000000027
42
-0.41421356237309243
10
258.66250000000002
20
-16.525000000000013
10
246.16250000000002
20
-16.524999999999963
42
-0.41421356237310025
10
245.41250000000008
20
-15.775000000000027
10
245.41250000000002
20
-3.2750000000000279
42
-0.41421356237316032
0
LINE
5
121
100
AcDbEntity
8
0
100
AcDbLine
10
20.537500000000005
20
-111.7750000000002
30
-5.1902926401226081e-14
11
8.0375000000000103
21
-111.77500000000046
31
3.6082248300317603e-15
0
LINE
5
122
100
AcDbEntity
8
0
100
AcDbLine
10
7.2875000000000156
20
-111.02500000000049
30
3.6082248300317603e-15
11
7.2875000000000201
21
-98.525000000000006
31
-8.7430063189231078e-14
0
LINE
5
123
100
AcDbEntity
8
0
100
AcDbLine
10
8.0374999999999979
20
-97.775000000000034
30
-8.9650509238481391e-14
11
20.537500000000005
21
-97.774999999999906
31
-6.0784710598227321e-14
0
ARC
5
124
100
AcDbEntity
8
0
100
AcDbCircle
10
20.537500000000005
20
-98.525000000000006
30
-8.7430063189231078e-14
40
0.75000000000001066
210
0
220
0
230
1
100
AcDbArc
50
0
51
90
0
ARC
5
125
100
AcDbEntity
8
0
100
AcDbCircle
10
8.0374999999999801
20
-98.525000000000006
30
-8.7430063189231078e-14
40
0.74999999999995737
210
7.0120969352983488e-29
220
2.9605947323338491e-15
230
1
100
AcDbArc
50
89.99999999999865
51
180
0
LWPOLYLINE
5
126
100
AcDbEntity
8
0
100
AcDbPolyline
90
8
70
1
43
0.0
10
191.98749999999995
20
-92.725000000000023
42
0.41421356237310897
10
192.73750000000007
20
-91.974999999999966
10
192.73750000000007
20
-79.475000000000023
42
0.41421356237304302
10
191.98750000000001
20
-78.725000000000023
10
179.48750000000001
20
-78.724999999999994
42
0.4142135623730534
10
178.73750000000001
20
-79.475000000000023
10
178.73750000000001
20
-91.974999999999966
42
0.41421356237306733
10
179.48750000000001
20
-92.724999999999966
0
LWPOLYLINE
5
127
100
AcDbEntity
8
0
100
AcDbPolyline
90
8
70
1
43
0.0
10
159.68749999999997
20
-79.475000000000023
10
159.68749999999997
20
-91.974999999999966
42
0.41421356237306034
10
160.43750000000003
20
-92.724999999999994
10
172.93749999999991
20
-92.725000000000023
42
0.41421356237310897
10
173.68750000000003
20
-91.974999999999966
10
173.68750000000003
20
-79.475000000000023
42
0.41421356237303258
10
172.9375
20
-78.725000000000023
10
160.4375
20
-78.724999999999994
42
0.41421356237307771
0
LWPOLYLINE
5
128
100
AcDbEntity
8
0
100
AcDbPolyline
90
8
70
1
43
0.0
10
121.58750000000005
20
-91.974999999999966
42
0.41421356237310197
10
122.33750000000001
20
-92.724999999999966
10
134.83750000000001
20
-92.724999999999966
42
0.41421356237306733
10
135.58750000000001
20
-91.974999999999966
10
135.58750000000001
20
-79.475000000000023
42
0.41421356237309159
10
134.83750000000001
20
-78.725000000000023
10
122.33750000000001
20
-78.724999999999994
42
0.41421356237308815
10
121.58750000000001
20
-79.475000000000023
0
LWPOLYLINE
5
129
100
AcDbEntity
8
0
100
AcDbPolyline
90
8
70
1
43
0.0
10
153.88749999999999
20
-78.725000000000023
10
141.38749999999999
20
-78.724999999999994
42
0.41421356237308815
10
140.63749999999999
20
-79.475000000000023
10
140.63750000000002
20
-91.974999999999966
42
0.41421356237308116
10
141.38749999999999
20
-92.724999999999966
10
153.88749999999999
20
-92.724999999999994
42
0.41421356237310897
10
154.63749999999999
20
-91.974999999999966
10
154.63749999999999
20
-79.475000000000023
42
0.41421356237308815
0
LWPOLYLINE
5
130
100
AcDbEntity
8
0
100
AcDbPolyline
90
8
70
1
43
0.0
10
230.08750000000006
20
-78.725000000000023
10
217.58750000000006
20
-78.725000000000023
42
0.41421356237312978
10
216.83750000000003
20
-79.475000000000023
10
216.83750000000003
20
-91.974999999999966
42
0.41421356237313667
10
217.58750000000006
20
-92.724999999999966
10
230.08750000000006
20
-92.724999999999966
42
0.41421356237311585
10
230.83750000000009
20
-91.974999999999966
10
230.83750000000009
20
-79.475000000000023
42
0.41421356237312978
0
LWPOLYLINE
5
131
100
AcDbEntity
8
0
100
AcDbPolyline
90
8
70
1
43
0.0
10
211.78750000000002
20
-79.475000000000023
42
0.41421356237307771
10
211.03750000000002
20
-78.725000000000009
10
198.53750000000002
20
-78.724999999999994
42
0.4142135623730534
10
197.78750000000002
20
-79.475000000000023
10
197.78750000000002
20
-91.974999999999966
42
0.41421356237306733
10
198.53750000000002
20
-92.724999999999966
10
211.03750000000002
20
-92.724999999999966
42
0.41421356237306733
10
211.78750000000002
20
-91.974999999999966
0
LWPOLYLINE
5
132
100
AcDbEntity
8
0
100
AcDbPolyline
90
8
70
1
43
0.0
10
227.11250000000007
20
-59.674999999999983
42
0.41421356237313323
10
226.36250000000004
20
-60.424999999999983
10
226.36250000000004
20
-72.925000000000054
42
0.41421356237303608
10
227.11250000000007
20
-73.675000000000054
10
239.61250000000007
20
-73.675000000000054
42
0.41421356237311241
10
240.36250000000001
20
-72.925000000000054
10
240.36250000000001
20
-60.424999999999983
42
0.41421356237313323
10
239.61250000000007
20
-59.675000000000004
0
LWPOLYLINE
5
133
100
AcDbEntity
8
0
100
AcDbPolyline
90
8
70
1
43
0.0
10
208.06250000000009
20
-59.674999999999983
42
0.41421356237314705
10
207.31250000000003
20
-60.424999999999983
10
207.31250000000003
20
-72.925000000000054
42
0.41421356237304652
10
208.06250000000009
20
-73.675000000000068
10
220.56250000000009
20
-73.675000000000054
42
0.41421356237315404
10
221.3125
20
-72.925000000000054
10
221.3125
20
-60.424999999999983
42
0.41421356237310197
10
220.56250000000011
20
-59.675000000000011
0
LINE
5
134
100
AcDbEntity
8
0
100
AcDbLine
10
21.287500000000016
20
-98.525000000000006
30
-8.7430063189231078e-14
11
21.287498728702335
21
-111.0250000000002
31
-5.1902926401226081e-14
0
LWPOLYLINE
5
135
100
AcDbEntity
8
0
100
AcDbPolyline
90
8
70
1
43
0.0
10
88.250000000000014
20
-53.874999999999964
42
0.41421356237307771
10
88.999999999999986
20
-54.624999999999929
10
101.5
20
-54.624999999999972
42
0.41421356237311585
10
102.25000000000001
20
-53.874999999999964
10
102.25000000000001
20
-41.374999999999964
42
0.41421356237311585
10
101.5
20
-40.624999999999972
10
89
20
-40.624999999999964
42
0.41421356237308815
10
88.250000000000028
20
-41.374999999999964
0
LWPOLYLINE
5
136
100
AcDbEntity
8
0
100
AcDbPolyline
90
8
70
1
43
0.0
10
182.46250000000001
20
-59.675000000000004
10
169.96250000000001
20
-59.675000000000004
42
0.41421356237308815
10
169.21250000000001
20
-60.424999999999983
10
169.21250000000001
20
-72.925000000000054
42
0.41421356237306384
10
169.96250000000001
20
-73.675000000000054
10
182.46250000000001
20
-73.675000000000097
42
0.41421356237308815
10
183.21250000000003
20
-72.925000000000054
10
183.21250000000003
20
-60.424999999999983
42
0.41421356237311585
0
LWPOLYLINE
5
137
100
AcDbEntity
8
0
100
AcDbPolyline
90
8
70
1
43
0.0
10
112.0625
20
-72.925000000000054
42
0.4142135623730846
10
112.8125
20
-73.675000000000054
10
125.3125
20
-73.675000000000068
42
0.41421356237308815
10
126.0625
20
-72.925000000000054
10
126.06250000000001
20
-60.424999999999983
42
0.41421356237309853
10
125.3125
20
-59.675000000000004
10
112.8125
20
-59.674999999999983
42
0.4142135623730846
10
112.0625
20
-60.424999999999983
0
LWPOLYLINE
5
138
100
AcDbEntity
8
0
100
AcDbPolyline
90
8
70
1
43
0.0
10
93.012500000000017
20
-72.925000000000054
42
0.41421356237311935
10
93.762499999999989
20
-73.675000000000054
10
106.2625
20
-73.675000000000054
42
0.41421356237309853
10
107.01250000000003
20
-72.925000000000054
10
107.01250000000002
20
-60.424999999999983
42
0.41421356237307422
10
106.2625
20
-59.675000000000004
10
93.762500000000003
20
-59.674999999999983
42
0.4142135623730846
10
93.012500000000017
20
-60.424999999999983
0
LWPOLYLINE
5
139
100
AcDbEntity
8
0
100
AcDbPolyline
90
8
70
1
43
0.0
10
140.34999999999999
20
-41.374999999999964
42
0.41421356237308815
10
139.60000000000002
20
-40.624999999999972
10
127.10000000000001
20
-40.624999999999964
42
0.41421356237312623
10
126.35000000000005
20
-41.374999999999964
10
126.35000000000004
20
-53.874999999999964
42
0.41421356237308116
10
127.10000000000001
20
-54.624999999999943
10
139.60000000000002
20
-54.624999999999972
42
0.41421356237311585
10
140.35000000000002
20
-53.874999999999964
0
LWPOLYLINE
5
140
100
AcDbEntity
8
0
100
AcDbPolyline
90
8
70
1
43
0.0
10
131.11250000000001
20
-60.424999999999983
10
131.11250000000001
20
-72.925000000000054
42
0.4142135623730846
10
131.86250000000001
20
-73.675000000000054
10
144.36250000000001
20
-73.675000000000068
42
0.41421356237308815
10
145.11250000000001
20
-72.925000000000054
10
145.11250000000001
20
-60.424999999999983
42
0.41421356237309853
10
144.36250000000001
20
-59.675000000000004
10
131.86250000000001
20
-59.674999999999983
42
0.4142135623730846
0
LWPOLYLINE
5
141
100
AcDbEntity
8
0
100
AcDbPolyline
90
8
70
1
43
0.0
10
188.26249999999999
20
-60.424999999999983
10
188.26249999999999
20
-72.925000000000054
42
0.41421356237303608
10
189.01250000000002
20
-73.675000000000082
10
201.51250000000002
20
-73.675000000000054
42
0.41421356237307078
10
202.26249999999999
20
-72.925000000000054
10
202.26249999999999
20
-60.424999999999983
42
0.41421356237309159
10
201.51250000000002
20
-59.675000000000004
10
189.01250000000002
20
-59.67499999999994
42
0.41421356237308815
0
LWPOLYLINE
5
142
100
AcDbEntity
8
0
100
AcDbPolyline
90
8
70
1
43
0.0
10
107.30000000000001
20
-41.374999999999964
10
107.30000000000001
20
-53.874999999999964
42
0.4142135623730846
10
108.05
20
-54.624999999999943
10
120.55
20
-54.624999999999993
42
0.41421356237311585
10
121.30000000000001
20
-53.874999999999964
10
121.29999999999998
20
-41.374999999999964
42
0.41421356237308815
10
120.55
20
-40.624999999999964
10
108.05
20
-40.624999999999964
42
0.41421356237308815
0
LWPOLYLINE
5
143
100
AcDbEntity
8
0
100
AcDbPolyline
90
8
70
1
43
0.0
10
253.90000000000001
20
-54.624999999999943
42
0.41421356237314705
10
254.65000000000006
20
-53.874999999999964
10
254.65000000000003
20
-41.374999999999964
42
0.41421356237303258
10
253.90000000000001
20
-40.624999999999964
10
241.40000000000001
20
-40.624999999999964
42
0.41421356237309853
10
240.65000000000001
20
-41.374999999999964
10
240.65000000000001
20
-53.874999999999964
42
0.41421356237318868
10
241.40000000000001
20
-54.624999999999915
0
LWPOLYLINE
5
144
100
AcDbEntity
8
0
100
AcDbPolyline
90
8
70
1
43
0.0
10
222.34999999999999
20
-40.624999999999964
42
0.41421356237309853
10
221.59999999999999
20
-41.374999999999964
10
221.59999999999999
20
-53.874999999999964
42
0.41421356237318868
10
222.34999999999999
20
-54.624999999999915
10
234.84999999999999
20
-54.624999999999943
42
0.41421356237314705
10
235.60000000000005
20
-53.874999999999964
10
235.60000000000002
20
-41.374999999999964
42
0.41421356237303258
10
234.84999999999999
20
-40.624999999999964
0
LWPOLYLINE
5
145
100
AcDbEntity
8
0
100
AcDbPolyline
90
8
70
1
43
0.0
10
178.44999999999999
20
-41.374999999999964
42
0.41421356237307771
10
177.69999999999999
20
-40.624999999999943
10
165.19999999999999
20
-40.624999999999964
42
0.41421356237306733
10
164.44999999999999
20
-41.374999999999964
10
164.44999999999999
20
-53.874999999999964
42
0.41421356237308116
10
165.19999999999999
20
-54.624999999999943
10
177.69999999999996
20
-54.624999999999979
42
0.41421356237311241
10
178.44999999999999
20
-53.874999999999964
0
LWPOLYLINE
5
146
100
AcDbEntity
8
0
100
AcDbPolyline
90
8
70
1
43
0.0
10
193.77500000000001
20
-21.574999999999953
10
206.27500000000001
20
-21.575000000000077
42
-0.41421356237307422
10
207.02500000000001
20
-22.324999999999967
10
207.02500000000001
20
-34.825000000000031
42
-0.41421356237307771
10
206.27500000000001
20
-35.575000000000038
10
193.77500000000001
20
-35.575000000000038
42
-0.41421356237315576
10
193.02500000000009
20
-34.825000000000031
10
193.02500000000009
20
-22.324999999999967
42
-0.41421356237309503
0
LWPOLYLINE
5
147
100
AcDbEntity
8
0
100
AcDbPolyline
90
8
70
1
43
0.0
10
212.82499999999999
20
-21.574999999999953
10
225.32499999999999
20
-21.575000000000053
42
-0.41421356237307944
10
226.07500000000002
20
-22.324999999999967
10
226.07500000000002
20
-34.825000000000031
42
-0.41421356237303608
10
225.32499999999999
20
-35.575000000000053
10
212.82499999999999
20
-35.57500000000006
42
-0.41421356237307944
10
212.07499999999999
20
-34.825000000000031
10
212.07500000000007
20
-22.324999999999967
42
-0.41421356237307422
0
LWPOLYLINE
5
148
100
AcDbEntity
8
0
100
AcDbPolyline
90
8
70
1
43
0.0
10
202.55000000000001
20
-53.874999999999964
42
0.41421356237308116
10
203.30000000000001
20
-54.624999999999922
10
215.80000000000001
20
-54.624999999999979
42
0.41421356237306733
10
216.55000000000001
20
-53.874999999999964
10
216.55000000000001
20
-41.374999999999964
42
0.41421356237307771
10
215.80000000000001
20
-40.624999999999943
10
203.30000000000001
20
-40.624999999999964
42
0.41421356237306733
10
202.55000000000001
20
-41.374999999999964
0
LWPOLYLINE
5
149
100
AcDbEntity
8
0
100
AcDbPolyline
90
8
70
1
43
0.0
10
184.25
20
-40.624999999999964
42
0.41421356237306733
10
183.5
20
-41.374999999999964
10
183.5
20
-53.874999999999964
42
0.41421356237308116
10
184.25
20
-54.624999999999943
10
196.75
20
-54.624999999999979
42
0.41421356237306733
10
197.5
20
-53.874999999999964
10
197.5
20
-41.374999999999964
42
0.41421356237307771
10
196.75
20
-40.624999999999964
0
LWPOLYLINE
5
150
100
AcDbEntity
8
0
100
AcDbPolyline
90
8
70
1
43
0.0
10
165.19999999999999
20
-16.524999999999945
42
-0.41421356237307855
10
164.44999999999996
20
-15.775000000000027
10
164.44999999999999
20
-3.2750000000000279
42
-0.41421356237306445
10
165.19999999999999
20
-2.524999999999971
10
177.69999999999999
20
-2.5249999999999706
42
-0.4142135623730589
10
178.45000000000002
20
-3.2749999999999879
10
178.44999999999999
20
-15.775000000000027
42
-0.41421356237309243
10
177.69999999999999
20
-16.525000000000013
0
LWPOLYLINE
5
151
100
AcDbEntity
8
0
100
AcDbPolyline
90
8
70
1
43
0.0
10
119.95625000000001
20
-97.775000000000034
10
144.36250000000001
20
-97.77500000000002
42
-0.41421356237308116
10
145.11250000000001
20
-98.525000000000006
10
145.11250000000001
20
-111.02499999999949
42
-0.41421356237312978
10
144.36250000000001
20
-111.77499999999952
10
119.95625000000001
20
-111.77499999999952
42
-0.41421356237310897
10
119.20625000000001
20
-111.02499999999949
10
119.20625000000001
20
-98.525000000000006
42
-0.41421356237314361
0
LWPOLYLINE
5
152
100
AcDbEntity
8
0
100
AcDbPolyline
90
8
70
1
43
0.0
10
78.4375
20
-3.2749999999999835
10
78.4375
20
-15.775000000000027
42
-0.41421356237308637
10
77.6875
20
-16.525000000000016
10
65.1875
20
-16.524999999999928
42
-0.41421356237310114
10
64.4375
20
-15.775000000000027
10
64.4375
20
-3.2750000000000279
42
-0.41421356237311435
10
65.1875
20
-2.5249999999999706
10
77.6875
20
-2.5249999999999768
42
-0.41421356237309465
0
LWPOLYLINE
5
153
100
AcDbEntity
8
0
100
AcDbPolyline
90
8
70
1
43
0.0
10
96.737499999999997
20
-2.5250000000000035
42
-0.41421356237312323
10
97.48750000000004
20
-3.2749999999999879
10
97.487500000000011
20
-15.775000000000027
42
-0.41421356237304652
10
96.737499999999997
20
-16.524999999999949
10
84.237500000000111
20
-16.524999999999935
42
-0.41421356237316098
10
83.487500000000082
20
-15.775000000000027
10
83.487499999999983
20
-3.2749999999999968
42
-0.41421356237310347
10
84.237499999999983
20
-2.5249999999999821
0
LWPOLYLINE
5
154
100
AcDbEntity
8
0
100
AcDbPolyline
90
8
70
1
43
0.0
10
164.16249999999997
20
-60.424999999999983
10
164.16250000000005
20
-72.925000000000054
42
-0.41421356237304996
10
163.41249999999999
20
-73.675000000000054
10
150.91250000000005
20
-73.674999999999983
42
-0.41421356237310197
10
150.16250000000011
20
-72.925000000000054
10
150.16249999999997
20
-60.424999999999983
42
-0.41421356237307771
10
150.91249999999999
20
-59.674999999999983
10
163.41249999999999
20
-59.675000000000004
42
-0.41421356237308815
0
LWPOLYLINE
5
155
100
AcDbEntity
8
0
100
AcDbPolyline
90
8
70
1
43
0.0
10
288.27499999999998
20
-53.874999999999964
10
288.27499999999998
20
-41.374999999999964
42
-0.41421356237307422
10
289.02500000000003
20
-40.625000000000064
10
301.52499999999998
20
-40.624999999999964
42
-0.41421356237306733
10
302.27499999999998
20
-41.374999999999964
10
302.27499999999998
20
-53.874999999999964
42
-0.41421356237307771
10
301.52499999999998
20
-54.624999999999986
10
289.02499999999998
20
-54.624999999999972
42
-0.41421356237306733
0
LWPOLYLINE
5
156
100
AcDbEntity
8
0
100
AcDbPolyline
90
8
70
1
43
0.0
10
158.65000000000003
20
-2.5249999999999968
42
-0.41421356237309159
10
159.39999999999995
20
-3.2749999999999879
10
159.40000000000001
20
-15.775000000000027
42
-0.41421356237309681
10
158.65000000000003
20
-16.525000000000006
10
146.15000000000003
20
-16.525000000000027
42
-0.41421356237308204
10
145.40000000000001
20
-15.775000000000027
10
145.40000000000003
20
-3.2750000000000279
42
-0.41421356237314316
10
146.15000000000003
20
-2.5249999999999826
0
LWPOLYLINE
5
157
100
AcDbEntity
8
0
100
AcDbPolyline
90
8
70
1
43
0.0
10
16.525000000000002
20
-22.324999999999967
10
16.524999999999999
20
-34.825000000000031
42
-0.41421356237310025
10
15.775000000000006
20
-35.575000000000038
10
3.2750000000000101
20
-35.575000000000038
42
-0.41421356237310003
10
2.5249999999999999
20
-34.825000000000031
10
2.5250000000000123
20
-22.324999999999974
42
-0.41421356237310347
10
3.2750000000000146
20
-21.575000000000056
10
15.775000000000006
20
-21.575000000000056
42
-0.41421356237309331
0
LWPOLYLINE
5
158
100
AcDbEntity
8
0
100
AcDbPolyline
90
8
70
1
43
0.0
10
228.45625000000001
20
-98.525000000000006
10
228.45625000000001
20
-111.02500000000049
42
-0.41421356237309503
10
227.70625000000001
20
-111.77500000000049
10
212.82499999999999
20
-111.77500000000049
42
-0.41421356237309503
10
212.07499999999999
20
-111.02500000000049
10
212.07499999999999
20
-98.525000000000006
42
-0.41421356237309503
10
212.82499999999999
20
-97.775000000000034
10
227.70625000000001
20
-97.775000000000034
42
-0.41421356237309503
0
LWPOLYLINE
5
159
100
AcDbEntity
8
0
100
AcDbPolyline
90
8
70
1
43
0.0
10
302.27499999999998
20
-72.924999999999955
42
-0.41421356237307771
10
301.52499999999998
20
-73.674999999999983
10
289.02499999999998
20
-73.674999999999955
42
-0.41421356237306733
10
288.27499999999998
20
-72.924999999999955
10
288.27499999999998
20
-60.424999999999983
42
-0.41421356237306034
10
289.02499999999998
20
-59.674999999999976
10
301.52499999999998
20
-59.674999999999976
42
-0.41421356237300139
10
302.27500000000009
20
-60.424999999999983
0
LWPOLYLINE
5
160
100
AcDbEntity
8
0
100
AcDbPolyline
90
8
70
1
43
0.0
10
302.27499999999998
20
-98.524999999999977
10
302.27499999999998
20
-111.02500000000049
42
-0.41421356237270657
10
301.52499999999998
20
-111.77499999999949
10
289.02499999999998
20
-111.77499999999952
42
-0.41421356237266493
10
288.27499999999998
20
-111.02500000000049
10
288.27499999999998
20
-98.525000000000006
42
-0.41421356237308116
10
289.02499999999998
20
-97.774999999999963
10
302.27500011183048
20
-97.775000000000034
0
LWPOLYLINE
5
161
100
AcDbEntity
8
0
100
AcDbPolyline
90
8
70
1
43
0.0
10
21.287500000000009
20
-41.374999999999964
42
0.41421356237309331
10
20.537500000000005
20
-40.624999999999957
10
8.0375000000000103
20
-40.624999999999964
42
0.41421356237309631
10
7.2875000000000236
20
-41.374999999999964
10
7.2874999999999908
20
-53.874999999999964
42
0.41421356237308293
10
8.0375000000000103
20
-54.62499999999995
10
20.537500000000005
20
-54.624999999999943
42
0.41421356237309853
10
21.287500000000005
20
-53.874999999999964
0
LWPOLYLINE
5
162
100
AcDbEntity
8
0
100
AcDbPolyline
90
8
70
1
43
0.0
10
269.97500000000002
20
-78.724999999999994
42
0.41421356237309503
10
269.22500000000002
20
-79.47499999999998
10
269.22500000000002
20
-91.974999999999966
42
0.41421356237310197
10
269.97500000000002
20
-92.724999999999966
10
282.47500000000002
20
-92.724999999999923
42
0.41421356237299795
10
283.22500000000008
20
-91.974999999999966
10
283.22500000000002
20
-79.47499999999998
42
0.41421356237306384
10
282.47500000000002
20
-78.725000000000023
0
LWPOLYLINE
5
163
100
AcDbEntity
8
0
100
AcDbPolyline
90
8
70
1
43
0.0
10
5.6562500000000124
20
-59.674999999999983
10
22.91875000000001
20
-59.675000000000004
42
-0.41421356237308116
10
23.66875000000001
20
-60.424999999999983
10
23.668749999999999
20
-72.924999999999955
42
-0.41421356237307944
10
22.91875000000001
20
-73.674999999999983
10
5.6562500000000115
20
-73.674999999999955
42
-0.41421356237310458
10
4.90625
20
-72.924999999999955
10
4.9062500000000044
20
-60.424999999999983
42
-0.41421356237307905
0
LWPOLYLINE
5
164
100
AcDbEntity
8
0
100
AcDbPolyline
90
8
70
1
43
0.0
10
158.65000000000003
20
-54.624999999999979
10
146.15000000000006
20
-54.624999999999986
42
-0.41421356237311935
10
145.40000000000003
20
-53.874999999999964
10
145.39999999999995
20
-41.374999999999964
42
-0.41421356237310542
10
146.15000000000006
20
-40.624999999999943
10
158.65000000000003
20
-40.624999999999964
42
-0.41421356237310542
10
159.40000000000001
20
-41.374999999999964
10
159.40000000000001
20
-53.874999999999964
42
-0.41421356237309503
0
LWPOLYLINE
5
165
100
AcDbEntity
8
0
100
AcDbPolyline
90
8
70
1
43
0.0
10
243.03125
20
-91.974999999999966
10
243.03125
20
-79.47499999999998
42
-0.41421356237307078
10
243.78125
20
-78.72499999999998
10
256.28125
20
-78.724999999999966
42
-0.41421356237313323
10
257.03125000000006
20
-79.47499999999998
10
257.03125
20
-91.974999999999966
42
-0.41421356237306733
10
256.28125
20
-92.724999999999966
10
243.78125
20
-92.724999999999966
42
-0.41421356237306733
0
LWPOLYLINE
5
166
100
AcDbEntity
8
0
100
AcDbPolyline
90
28
70
1
43
0.0
10
251.51200000000003
20
-19.575003169080137
10
258.01199999999994
20
-19.575003169080372
42
-0.41421356237297535
10
258.7619999999996
20
-20.325003169079949
10
258.76199999999994
20
-21.575003169080091
10
274.63799999999992
20
-21.575003169080091
10
274.63799999999998
20
-20.32500316907981
42
-0.41421356237302392
10
275.38799999999992
20
-19.57500316908008
10
281.88799999999992
20
-19.575003169080031
42
-0.41421356237316964
10
282.63799999999998
20
-20.325003169080023
10
282.63799999999992
20
-21.592930085296764
42
-0.35140806002099306
10
283.22500000000002
20
-22.325003169080087
10
283.22500000000008
20
-34.825003169080084
42
-0.35140806002105385
10
282.63799999999992
20
-35.557076252863425
10
282.63799999999992
20
-36.825003169080155
42
-0.41421356237309503
10
281.88799999999992
20
-37.575003169080148
10
275.38799999999992
20
-37.575003169079828
42
-0.41421356237303436
10
274.63800000000026
20
-36.825003169080368
10
274.63799999999992
20
-35.575003169080105
10
258.76199999999994
20
-35.575003169080105
10
258.76199999999989
20
-36.825003169080247
42
-0.41421356237298235
10
258.01199999999994
20
-37.575003169080055
10
251.51200000000003
20
-37.575003169080027
42
-0.41421356237303958
10
250.762
20
-36.825003169079991
10
250.762
20
-35.557076252863411
42
-0.35140806002099439
10
250.1750000000001
20
-34.825003169080091
10
250.1750000000001
20
-22.325003169080087
42
-0.35140806002100322
10
250.762
20
-21.5929300852968
10
250.762
20
-20.325003169080187
42
-0.41421356237309853
0
LWPOLYLINE
5
167
100
AcDbEntity
8
0
100
AcDbPolyline
90
8
70
1
43
0.0
10
172.20625000000001
20
-96.525000000000063
42
-0.41421356237315055
10
172.95625000000001
20
-95.775000000000077
10
179.45624999999993
20
-95.775000000000063
42
-0.41421356237307422
10
180.20625000000001
20
-96.525000000000034
10
180.20625000000001
20
-112.28991000000002
42
-0.41421356237309503
10
179.45625000000004
20
-113.03991000000003
10
172.9562500000003
20
-113.03991000000038
42
-0.41421356237313667
10
172.20624999999995
20
-112.28991000000015
0
LWPOLYLINE
5
168
100
AcDbEntity
8
0
100
AcDbPolyline
90
8
70
1
43
0.0
10
73.456249999999983
20
-95.789907696717464
10
84.212500000000006
20
-95.789907696717606
42
-0.4142126628870279
10
84.96250000000019
20
-96.539910000000106
10
84.96250000000002
20
-112.28990769671751
42
-0.41421356237309503
10
84.212500000000006
20
-113.03990769671744
10
73.456249999999983
20
-113.03990769671744
42
-0.41421356237310197
10
72.706249999999983
20
-112.28990769671746
10
72.706250000000068
20
-96.539907696717435
42
-0.41421356237307078
0
LWPOLYLINE
5
169
100
AcDbEntity
8
0
100
AcDbPolyline
90
18
70
1
43
0.0
10
191.26249999999999
20
-96.525000000000034
10
191.26249999999999
20
-97.786573674968267
42
0.36358160544328927
10
190.64375000000001
20
-98.525000000000048
10
190.64375000000001
20
-111.02500000000005
42
0.36358160544338358
10
191.26249999999999
20
-111.76342632503193
10
191.26249999999996
20
-112.28991000000008
42
0.41421356237312978
10
192.01250000000002
20
-113.03991000000003
10
198.51249999999999
20
-113.03990999999996
42
0.41421356237317136
10
199.26249999999996
20
-112.28991000000008
10
199.26249999999999
20
-111.77500000000008
10
203.89375000000001
20
-111.77500000000003
42
0.41421356237315055
10
204.64374999999995
20
-111.02500000000006
10
204.64375000000004
20
-98.525000000000063
42
0.41421356237306733
10
203.89375000000001
20
-97.775000000000105
10
199.26249999999999
20
-97.775000000000034
10
199.2625000000001
20
-96.525000000000105
42
0.41421356237310197
10
198.51249999999999
20
-95.775000000000063
10
192.01250000000002
20
-95.775000000000134
42
0.41421356237318524
0
LWPOLYLINE
5
170
100
AcDbEntity
8
0
100
AcDbPolyline
90
98
70
1
43
0.0
10
304.80000000000086
20
-113.3000031690802
10
304.79999999998415
20
-1.0000031690800704
42
0.4142135623730307
10
303.79999999998972
20
-3.1690853825872001e-06
10
288.75107684421823
20
-3.1690800458838986e-06
42
0.41377903726530091
10
287.7510779450335
20
-0.99851938022540798
10
287.75
20
-1.7249999999999919
42
-0.99999999999999989
10
283.75000000000006
20
-1.7250000000000258
10
283.74892205496667
20
-0.99851938022539333
42
0.41377903726566384
10
282.74892315578194
20
-3.1690801318874998e-06
10
268.81874999999991
20
-3.1690853830035337e-06
42
-0.41421356237313556
10
267.31875000000002
20
1.4999968309146119
10
267.31875000000002
20
2.4999968309146081
42
0.99999999999999989
10
261.31875000000002
20
2.4999968309144585
10
261.31875000000002
20
1.4999968309146119
42
-0.41421356237305951
10
259.81875000000002
20
-3.1690853691257459e-06
10
207.78857684421814
20
-3.1690800460226765e-06
42
0.41377903726536991
10
206.78857794503347
20
-0.99851938022534548
10
206.78750000000002
20
-1.7250000000000081
42
-0.99999999999999989
10
202.78750000000002
20
-1.7250000000000429
10
202.78642205496655
20
-0.99851938022539122
42
0.41377903726541321
10
201.7864231557819
20
-3.1690801269301794e-06
10
187.85624999999999
20
-3.1690853968813215e-06
42
-0.4142135623733294
10
186.35625000000005
20
1.4999968309146119
10
186.35625000000002
20
2.4999968309146081
42
0.99999999999999989
10
180.35624999999999
20
2.4999968309146441
10
180.35625000000007
20
1.4999968309146117
42
-0.4142135623730831
10
178.85625000000005
20
-3.1690853918853179e-06
10
126.82607684421814
20
-3.1690800464390101e-06
42
0.41377903726542609
10
125.82607794503345
20
-0.99851938022540876
10
125.82500000000002
20
-1.7250000000000278
42
-0.99999999999999989
10
121.82500000000003
20
-1.7250000000000267
10
121.82392205496656
20
-0.99851938022539355
42
0.41377903726540916
10
120.8239231557819
20
-3.1690801000883236e-06
10
106.89375
20
-3.1690854099264421e-06
42
-0.41421356237310542
10
105.39375
20
1.4999968309146117
10
105.39375
20
2.4999968309146081
42
0.99999999999999989
10
99.393749999999983
20
2.4999968309146094
10
99.393749999999997
20
1.4434644755558761
42
-0.41421356237309126
10
97.893749999999997
20
-0.056535524444129015
10
45.863618785280622
20
-0.056535524444048801
42
0.41377903726541143
10
44.863619886095904
20
-1.0550517355894231
10
44.86254194106251
20
-1.7815323553640106
42
-0.99999999999999989
10
40.862541941062496
20
-1.7815323553640094
10
40.861463996029094
20
-1.0550517355893936
42
0.41377903726540027
10
39.861465096844384
20
-0.056535524444092412
10
25.931250000000002
20
-0.056535524444080165
42
-0.4142135623730927
10
24.431249999999984
20
1.443464475555942
10
24.431249999999984
20
2.4999968309146081
42
0.99999999999999989
10
18.431250000000038
20
2.4999968309146094
10
18.431249999999984
20
1.4999968309146114
42
-0.41421356237309509
10
16.931249999999981
20
-3.1690853924404294e-06
10
1.000000000000798
20
-3.1690800486594561e-06
42
0.41421356237309587
10
7.9644624229047167e-13
20
-1.0000031690800524
10
3.9883385344330335e-08
20
-113.30020287554876
42
0.41415507091182308
10
1.0000000199421557
20
-114.30000316908014
10
5.7874999999999801
20
-114.30000316908014
42
-0.4142135623730957
10
7.2874999999999881
20
-115.80000316908013
10
7.2875000000000023
20
-116.80000316908014
42
0.99999999999999989
10
13.287500000000021
20
-116.80000316908014
10
13.287500000000019
20
-115.80000316908013
42
-0.41421356237308771
10
14.7875
20
-114.30000316908014
10
22.168300954151235
20
-114.30000559137079
42
0.41377903726541532
10
23.168299853335945
20
-113.30148938022549
10
23.169377798369307
20
-112.57500876045088
42
-0.99999999999999989
10
27.169377798369364
20
-112.57500876045088
10
27.170455743402719
20
-113.3014893802256
42
0.41377903726535298
10
28.170454642587451
20
-114.30000559137085
10
61.287500000000072
20
-114.30000316908009
42
-0.41421356237310542
10
62.787500000000023
20
-115.8000031690801
10
62.787499999999987
20
-116.80000316908014
42
0.99999999999999989
10
68.787499999999994
20
-116.80000316908014
10
68.78749999999998
20
-115.7970355913708
42
-0.41421356237308637
10
70.287499999999966
20
-114.2970355913708
10
159.00517095415125
20
-114.2970355913708
42
0.41377903726538412
10
160.00516985333593
20
-113.2985193802255
10
160.00624779836937
20
-112.57203876045084
42
-0.99999999999999989
10
164.00624779836946
20
-112.57203876045084
10
164.0073257434027
20
-113.29851938022543
42
0.41377903726539977
10
165.00732464258743
20
-114.29703559137084
10
215.73250000000002
20
-114.29703559137089
42
-0.41421356237309159
10
217.23250000000002
20
-115.79703559137087
10
217.23250000000002
20
-116.80000316908016
42
0.99999999999999989
10
223.23250000000002
20
-116.80000316908013
10
223.23250000000007
20
-115.80000316908016
42
-0.4142135623730846
10
224.73250000000007
20
-114.30000316908016
10
263.59842315578192
20
-114.30000316908009
42
0.41377903726538928
10
264.59842205496659
20
-113.30148695793476
10
264.59950000000003
20
-112.57500633816015
42
-0.99999999999999989
10
268.59950000000015
20
-112.57500633816015
10
268.60057794503348
20
-113.3014869579347
42
0.4137790372653945
10
269.60057684421815
20
-114.30000316908009
10
287.24999999999994
20
-114.30000316908014
42
-0.41421356237309159
10
288.74999999999994
20
-115.80000316908013
10
288.74999999999994
20
-116.80000316908014
42
0.99999999999999989
10
294.75000000000006
20
-116.80000316908014
10
294.75
20
-115.80000316908013
42
-0.41421356237309853
10
296.24999999999994
20
-114.30000316908014
10
303.80000000000086
20
-114.30000316908016
42
0.41421356237310025
0
LWPOLYLINE
5
171
100
AcDbEntity
8
0
100
AcDbPolyline
90
8
70
1
43
0.0
10
120.55
20
-16.52500316908008
10
108.05
20
-16.525003169080058
42
-0.41421356237309331
10
107.29999999999997
20
-15.775003169080071
10
107.29999999999997
20
-3.2750031690800774
42
-0.4142135623731163
10
108.05
20
-2.5250031690800654
10
120.55
20
-2.5250031690800423
42
-0.41421356237309354
10
121.29999999999997
20
-3.27500316908008
10
121.29999999999997
20
-15.775003169080071
42
-0.41421356237309592
0
LWPOLYLINE
5
172
100
AcDbEntity
8
0
100
AcDbPolyline
90
8
70
1
43
0.0
10
26.337500000000009
20
-3.2750031690800441
42
-0.41421356237309936
10
27.087500000000002
20
-2.5250031690800401
10
39.587499999999991
20
-2.5250031690800285
42
-0.41421356237309009
10
40.337500000000041
20
-3.2750031690800441
10
40.337499999999984
20
-15.775003169080071
42
-0.41421356237310719
10
39.587499999999991
20
-16.525003169080058
10
27.087499999999991
20
-16.525003169080065
42
-0.41421356237308982
10
26.337500000000006
20
-15.775003169080064
0
LWPOLYLINE
5
173
100
AcDbEntity
8
0
100
AcDbPolyline
90
8
70
1
43
0.0
10
59.387500000000031
20
-3.2750031690800663
10
59.387500000000024
20
-15.775003169080064
42
-0.41421356237309853
10
58.637500000000003
20
-16.525003169080094
10
46.137500000000003
20
-16.525003169080065
42
-0.41421356237309243
10
45.387500000000003
20
-15.775003169080064
10
45.387500000000003
20
-3.2750031690800729
42
-0.41421356237310802
10
46.137500000000003
20
-2.5250031690800556
10
58.637500000000003
20
-2.525003169080009
42
-0.41421356237309809
0
CIRCLE
5
174
100
AcDbEntity
8
0
100
AcDbCircle
10
21.431250000000009
20
2.4999968309146081
30
0
40
1.7500000000000029
210
0
220
0
230
1
0
LWPOLYLINE
5
175
100
AcDbEntity
8
0
100
AcDbPolyline
90
8
70
1
43
0.0
10
140.34999999999994
20
-3.2750031690800485
10
140.34999999999997
20
-15.775003169080071
42
-0.41421356237308204
10
139.59999999999997
20
-16.525003169080065
10
127.09999999999997
20
-16.525003169080069
42
-0.41421356237307511
10
126.34999999999999
20
-15.775003169080071
10
126.34999999999999
20
-3.2750031690800774
42
-0.4142135623730942
10
127.09999999999997
20
-2.5250031690800334
10
139.59999999999997
20
-2.5250031690800618
42
-0.41421356237311779
0
CIRCLE
5
176
100
AcDbEntity
8
0
100
AcDbCircle
10
102.39374999999998
20
2.4999968309146081
30
0
40
1.7500000000000071
210
0
220
0
230
1
0
LWPOLYLINE
5
177
100
AcDbEntity
8
0
100
AcDbPolyline
90
8
70
1
43
0.0
10
289.02499999999992
20
-2.5250031690800641
10
301.52499999999992
20
-2.525003169080096
42
-0.41421356237304519
10
302.27499999999998
20
-3.2750031690800601
10
302.27499999999998
20
-15.775003169080081
42
-0.41421356237307511
10
301.52499999999992
20
-16.525003169080009
10
289.02499999999998
20
-16.525003169080048
42
-0.41421356237314361
10
288.27499999999992
20
-15.775003169080081
10
288.27499999999981
20
-3.2750031690800863
42
-0.41421356237309725
0
LWPOLYLINE
5
178
100
AcDbEntity
8
0
100
AcDbPolyline
90
8
70
1
43
0.0
10
208.06250000000009
20
-2.5250031690800867
42
0.41421356237319151
10
207.31250000000003
20
-3.2750031690800463
10
207.31250000000003
20
-15.775003169080064
42
0.41421356237308637
10
208.06250000000009
20
-16.525003169080033
10
220.56250000000006
20
-16.52500316908008
42
0.41421356237303092
10
221.3125
20
-15.775003169080064
10
221.31250000000009
20
-3.2750031690800463
42
0.4142135623731748
10
220.56250000000006
20
-2.5250031690800978
0
LWPOLYLINE
5
179
100
AcDbEntity
8
0
100
AcDbPolyline
90
8
70
1
43
0.0
10
250.8245
20
-97.775003169080065
10
263.32449999999983
20
-97.775003169080094
42
-0.41421356237315055
10
264.07449999999989
20
-98.52500316908008
10
264.07449999999989
20
-111.02500316908008
42
-0.41421356237314361
10
263.32449999999983
20
-111.77500316908009
10
250.8245
20
-111.77500316908009
42
-0.41421356237310897
10
250.07449999999992
20
-111.02500316908008
10
250.07449999999992
20
-98.52500316908008
42
-0.41421356237310897
0
CIRCLE
5
180
100
AcDbEntity
8
0
100
AcDbCircle
10
220.23250000000002
20
-116.80000316908016
30
0
40
1.7500000000000071
210
0
220
0
230
1
0
LWPOLYLINE
5
181
100
AcDbEntity
8
0
100
AcDbPolyline
90
8
70
1
43
0.0
10
202.26249999999996
20
-3.2750031690800463
10
202.26249999999999
20
-15.775003169080064
42
-0.41421356237312018
10
201.5124999999999
20
-16.525003169080069
10
189.01250000000002
20
-16.52500316908008
42
-0.41421356237303697
10
188.26249999999999
20
-15.775003169080071
10
188.26249999999987
20
-3.2750031690800485
42
-0.41421356237317353
10
189.01250000000002
20
-2.5250031690800681
10
201.5124999999999
20
-2.5250031690800872
42
-0.41421356237312995
0
LWPOLYLINE
5
182
100
AcDbEntity
8
0
100
AcDbPolyline
90
8
70
1
43
0.0
10
283.2249999999998
20
-3.2750031690800601
10
283.22500000000002
20
-15.775003169080081
42
-0.41421356237304913
10
282.47500000000002
20
-16.525003169080044
10
269.97500000000002
20
-16.525003169080087
42
-0.41421356237314966
10
269.22500000000002
20
-15.775003169080081
10
269.22500000000002
20
-3.2750031690800863
42
-0.41421356237316398
10
269.97500000000002
20
-2.5250031690800512
10
282.47500000000002
20
-2.525003169080144
42
-0.41421356237305823
0
CIRCLE
5
183
100
AcDbEntity
8
0
100
AcDbCircle
10
10.287500000000009
20
-116.80000316908014
30
0
40
1.7500000000000004
210
0
220
0
230
1
0
LWPOLYLINE
5
184
100
AcDbEntity
8
0
100
AcDbPolyline
90
8
70
1
43
0.0
10
269.87450000000013
20
-97.775003169080094
10
282.37450000000001
20
-97.775003169080065
42
-0.41421356237315748
10
283.12450000000001
20
-98.52500316908008
10
283.12450000000007
20
-111.02500316908008
42
-0.41421356237313667
10
282.37450000000001
20
-111.77500316908011
10
269.87450000000013
20
-111.77500316908009
42
-0.41421356237310897
10
269.12450000000001
20
-111.02500316908008
10
269.12450000000001
20
-98.52500316908008
42
-0.41421356237312978
0
LWPOLYLINE
5
185
100
AcDbEntity
8
0
100
AcDbPolyline
90
8
70
1
43
0.0
10
264.11625000000004
20
-78.725000000000023
42
-0.41421356237306733
10
264.86625000000004
20
-79.475000000000023
10
264.86625000000009
20
-91.975003169080125
42
-0.41421356237308116
10
264.11625000000004
20
-92.725003169080153
10
262.61625000000009
20
-92.725003169081802
42
-0.41421418117458531
10
261.86625000000009
20
-91.975001584540067
10
261.86625000000004
20
-79.475000000000023
42
-0.41421356237309853
10
262.61625000000004
20
-78.725000000000023
0
CIRCLE
5
186
100
AcDbEntity
8
0
100
AcDbCircle
10
183.35624999999999
20
2.4999968309146081
30
0
40
1.7500000000000071
210
0
220
0
230
1
0
CIRCLE
5
187
100
AcDbEntity
8
0
100
AcDbCircle
10
264.31875000000002
20
2.4999968309146081
30
0
40
1.7500000000000071
210
0
220
0
230
1
0
CIRCLE
5
188
100
AcDbEntity
8
0
100
AcDbCircle
10
65.78749999999998
20
-116.80000316908014
30
0
40
1.7499999999999982
210
0
220
0
230
1
0
LWPOLYLINE
5
189
100
AcDbEntity
8
0
100
AcDbPolyline
90
8
70
1
43
0.0
10
30.753750000000011
20
-73.675003169080099
10
29.253750000000011
20
-73.675003169081791
42
-0.41421418117458875
10
28.503750000000014
20
-72.925001584540055
10
28.503750000000029
20
-60.42500000000004
42
-0.41421356237309853
10
29.253750000000021
20
-59.675000000000018
10
30.753750000000011
20
-59.675000000000011
42
-0.41421356237310025
10
31.503750000000018
20
-60.425000000000026
10
31.503750000000011
20
-72.925003169080099
42
-0.41421356237311063
0
LWPOLYLINE
5
190
100
AcDbEntity
8
0
100
AcDbPolyline
90
8
70
1
43
0.0
10
238.67250000000001
20
-79.475000000000023
10
238.67249999999842
20
-91.975001584540067
42
-0.41421418117459918
10
237.92250000000001
20
-92.725003169080153
10
236.42250000000004
20
-92.725003169080139
42
-0.4142135623730534
10
235.67250000000001
20
-91.975003169080125
10
235.67250000000004
20
-79.475000000000023
42
-0.41421356237309853
10
236.42250000000004
20
-78.725000000000023
10
237.92250000000001
20
-78.725000000000023
42
-0.41421356237309853
0
LWPOLYLINE
5
191
100
AcDbEntity
8
0
100
AcDbPolyline
90
8
70
1
43
0.0
10
26.943750000000009
20
-40.625000000000014
42
-0.41421356237309159
10
27.693750000000019
20
-41.375000000000021
10
27.693749999998328
20
-53.875001584540072
42
-0.41421418117459746
10
26.943750000000009
20
-54.625003169080117
10
25.443750000000009
20
-54.625003169080102
42
-0.41421356237308982
10
24.693750000000012
20
-53.875003169080102
10
24.693750000000026
20
-41.375000000000036
42
-0.41421356237309681
10
25.443750000000019
20
-40.625000000000014
0
CIRCLE
5
192
100
AcDbEntity
8
0
100
AcDbCircle
10
291.75
20
-116.80000316908014
30
0
40
1.7500000000000071
210
0
220
0
230
1
0
LWPOLYLINE
5
193
100
AcDbEntity
8
0
100
AcDbPolyline
90
8
70
1
43
0.0
10
63.399999999999999
20
-97.77499999999992
42
-0.41421356237310542
10
64.15000000000002
20
-98.525000000000034
10
64.150000000000006
20
-111.02500000000049
42
-0.41421356237310897
10
63.399999999999999
20
-111.77500000000046
10
48.518749999999997
20
-111.77500000000049
42
-0.4142135623730846
10
47.768749999999997
20
-111.02500000000049
10
47.768749999999997
20
-98.525000000000006
42
-0.41421356237309853
10
48.518749999999997
20
-97.775000000000034
0
LWPOLYLINE
5
194
100
AcDbEntity
8
0
100
AcDbPolyline
90
8
70
1
43
0.0
10
63.399999999999999
20
-54.624999999999979
42
0.41421356237309503
10
64.150000000000006
20
-53.874999999999964
10
64.150000000000006
20
-41.374999999999964
42
0.41421356237308116
10
63.399999999999999
20
-40.624999999999964
10
50.899999999999999
20
-40.624999999999964
42
0.41421356237310542
10
50.15000000000002
20
-41.374999999999964
10
50.150000000000013
20
-53.874999999999964
42
0.41421356237309853
10
50.899999999999999
20
-54.624999999999943
0
LWPOLYLINE
5
195
100
AcDbEntity
8
0
100
AcDbPolyline
90
8
70
1
43
0.0
10
45.100000000000016
20
-53.874999999999964
10
45.100000000000009
20
-41.374999999999964
42
0.41421356237310197
10
44.350000000000016
20
-40.624999999999972
10
31.850000000000005
20
-40.624999999999964
42
0.41421356237310719
10
31.099999999999998
20
-41.374999999999957
10
31.099999999999994
20
-53.874999999999964
42
0.41421356237308637
10
31.850000000000005
20
-54.62499999999995
10
44.350000000000016
20
-54.624999999999972
42
0.41421356237309503
0
LWPOLYLINE
5
196
100
AcDbEntity
8
0
100
AcDbPolyline
90
32
70
1
43
0.0
10
39.587500000000013
20
-92.724999999999966
10
36.869250000000008
20
-92.724999999999966
10
36.869245912895927
20
-93.974999395964318
42
-0.41421356237308116
10
36.119245912895934
20
-94.724999395964318
10
30.619245912895927
20
-94.724999395964318
42
-0.41421356237308293
10
29.869245912895931
20
-93.974999395964318
10
29.869250000000001
20
-92.724999999999966
10
12.99325
20
-92.724999999999966
10
12.99324591289594
20
-93.974999395964318
42
-0.4142098150327459
10
12.243250000000005
20
-94.724999999999994
10
6.7432500000000006
20
-94.724999999999966
42
-0.41421220215514348
10
5.9932459128958726
20
-93.974999395964318
10
5.9932499999999997
20
-92.724999999999966
10
5.65625
20
-92.724999999999966
42
-0.41421356237309159
10
4.9062500000000089
20
-91.97499999999998
10
4.9062499999999885
20
-79.47499999999998
42
-0.41421356237309204
10
5.6562500000000027
20
-78.724999999999994
10
5.9932459128959179
20
-78.724999999999994
10
5.9932459128958726
20
-77.47499939596436
42
-0.41421356237311285
10
6.7432459128960076
20
-76.724999395964318
10
12.243245912895947
20
-76.724999395964375
42
-0.4142135623730378
10
12.993245912895937
20
-77.474999395964375
10
12.993245912895937
20
-78.724999999999994
10
29.869245912895931
20
-78.724999999999994
10
29.869245912895931
20
-77.47499939596436
42
-0.41421356237309331
10
30.619245912895927
20
-76.724999395964375
10
36.119245912895934
20
-76.724999395964375
42
-0.41421356237304302
10
36.869245912895927
20
-77.47499939596436
10
36.869245912895927
20
-78.724999999999994
10
39.587500000000013
20
-78.724999999999994
42
-0.41421356237309331
10
40.33750000000002
20
-79.47499999999998
10
40.337499999999991
20
-91.974999999999966
42
-0.41421356237308637
0
LWPOLYLINE
5
197
100
AcDbEntity
8
0
100
AcDbPolyline
90
8
70
1
43
0.0
10
77.6875
20
-92.724999999999966
42
0.4142135623730569
10
78.437500000000014
20
-91.97499999999998
10
78.437500000000014
20
-79.475000000000023
42
0.41421356237308116
10
77.6875
20
-78.725000000000009
10
65.1875
20
-78.724999999999994
42
0.41421356237308815
10
64.4375
20
-79.475000000000023
10
64.437500000000014
20
-91.974999999999923
42
0.41421356237313323
10
65.1875
20
-92.724999999999952
0
LWPOLYLINE
5
198
100
AcDbEntity
8
0
100
AcDbPolyline
90
8
70
1
43
0.0
10
22.324999999999999
20
-35.575000000000045
42
-0.41421356237310025
10
21.57500000000001
20
-34.825000000000031
10
21.57500000000001
20
-22.324999999999967
42
-0.41421356237310197
10
22.324999999999999
20
-21.574999999999953
10
34.825000000000003
20
-21.574999999999953
42
-0.41421356237309503
10
35.57500000000001
20
-22.324999999999967
10
35.57500000000001
20
-34.825000000000031
42
-0.41421356237309681
10
34.825000000000003
20
-35.575000000000038
0
LWPOLYLINE
5
199
100
AcDbEntity
8
0
100
AcDbPolyline
90
8
70
1
43
0.0
10
58.637500000000003
20
-92.724999999999966
42
0.41421356237311585
10
59.387499999999996
20
-91.974999999999966
10
59.387500000000003
20
-79.475000000000023
42
0.41421356237311585
10
58.637500000000003
20
-78.725000000000023
10
46.137500000000003
20
-78.724999999999994
42
0.41421356237310197
10
45.387500000000003
20
-79.475000000000023
10
45.387500000000017
20
-91.974999999999923
42
0.41421356237314017
10
46.137500000000003
20
-92.724999999999966
0
LWPOLYLINE
5
200
100
AcDbEntity
8
0
100
AcDbPolyline
90
8
70
1
43
0.0
10
54.625
20
-34.825000000000031
42
-0.41421356237309503
10
53.875
20
-35.575000000000038
10
41.375
20
-35.575000000000045
42
-0.41421356237309159
10
40.625
20
-34.825000000000031
10
40.625
20
-22.324999999999967
42
-0.41421356237310897
10
41.375
20
-21.574999999999953
10
53.874999999999993
20
-21.574999999999953
42
-0.41421356237308982
10
54.625
20
-22.324999999999967
0
LWPOLYLINE
5
201
100
AcDbEntity
8
0
100
AcDbPolyline
90
43
70
1
43
0.0
10
245.41250000000002
20
-72.924999999999955
10
245.41250000000002
20
-60.424999999999983
42
-0.41421356237309503
10
246.16250000000002
20
-59.674999999999997
10
248.88074591289597
20
-59.674999999999983
10
248.88074591289592
20
-58.424999395964363
42
-0.41421356237311241
10
249.63074591289603
20
-57.674999395964328
10
255.13074591289603
20
-57.674999395964392
42
-0.4142135623730846
10
255.880745912896
20
-58.424999395964363
10
255.880745912896
20
-59.674999999999983
10
266.84375
20
-59.674999999999983
10
266.84375
20
-54.62499999999995
10
265.21249999999998
20
-54.624999999999972
42
-0.41421356237306733
10
264.46249999999998
20
-53.874999999999964
10
264.46249999999998
20
-49.212000000000131
10
262.83124999999995
20
-49.212000000000032
42
-0.41421356237310897
10
262.08124999999995
20
-48.462000000000025
10
262.08124999999995
20
-41.962000000000018
42
-0.41421356237311241
10
262.83124999999995
20
-41.212000000000018
10
264.48042691621669
20
-41.21200000000001
42
-0.35140806002100222
10
265.21249999999998
20
-40.624999999999986
10
277.71249999999998
20
-40.624999999999993
42
-0.35140806002104286
10
278.44457308378333
20
-41.211999999999939
10
280.09375
20
-41.212000000000025
42
-0.41421356237303258
10
280.84375
20
-41.962000000000018
10
280.84375
20
-48.462000000000025
10
280.84375
20
-50.899999999999999
10
280.84375
20
-72.337999999999994
42
-0.41421356237306733
10
280.09375
20
-73.08799999999998
10
279.75675000000001
20
-73.088000000000022
10
279.75675000000001
20
-74.925000000000054
42
-0.41421356237304996
10
279.00675000000001
20
-75.675000000000011
10
273.50675000000001
20
-75.675000000000068
42
-0.41421356237309853
10
272.75675000000001
20
-74.925000000000054
10
272.75675000000001
20
-73.088000000000022
10
271.30082308378297
20
-73.088000000000022
42
-0.35140806002098363
10
270.56875000000002
20
-73.67499999999994
10
255.88075000000003
20
-73.674999999999955
10
255.88075000000003
20
-74.925000000000054
42
-0.41421356237306384
10
255.13075000000001
20
-75.675000000000026
10
249.63075000000003
20
-75.675000000000068
42
-0.41421356237309853
10
248.88075000000003
20
-74.925000000000054
10
248.88075000000001
20
-73.674999999999955
10
246.16250000000002
20
-73.674999999999955
42
-0.41421356237309853
0
ENDSEC
0
SECTION
2
OBJECTS
0
DICTIONARY
5
C
100
AcDbDictionary
3
ACAD_GROUP
350
D
3
ACAD_MLINESTYLE
350
17
0
DICTIONARY
5
D
100
AcDbDictionary
0
DICTIONARY
5
1A
330
C
100
AcDbDictionary
0
DICTIONARY
5
17
100
AcDbDictionary
0
ENDSEC
0
EOF
